<?xml version="1.0" encoding="UTF-8" standalone="no"?>
<svg xmlns="http://www.w3.org/2000/svg" xml:space="preserve" width="1001" height="1001" viewBox="0 0 200.2 200.2">
  <path fill-rule="evenodd" d="M108.1 8.1C52.966782 8.1 8.0999999 52.966775 8.0999999 108.1c0 55.13322 44.8667821 100 100.0000001 100 55.13322 0 100-44.86678 100-100 0-55.133225-44.86678-100-100-100zm2.55566 5.155275c11.77781.311117 23.04462 2.778017 33.37793 7.022458 4.59999 7.911035 8.57774 15.688849 11.95541 23.333333-19.55547-17.155631-39.53335-26.022464-45.33334-28.355791Zm-5.111.02242v2c-5.777828 2.333326-25.777879 11.2-45.333328 28.355465 3.37765-7.644485 7.355433-15.422182 11.933266-23.333333 10.355484-4.244441 21.600083-6.711035 33.400062-7.022135zm0 7.511067v13.866537c-3.33333.288999-20.511178 2.200213-41.911128 12.755859 17.1778-15.08897 34.733316-23.533502 41.911128-26.622396zm5.111.02213c7.55566 3.22221 26.53327 12.33353 44.51107 28.888997-20.79996-11.15543-38.33325-14.133514-44.51107-14.844679Zm41.3112 3.177734c5.99999 3.133278 11.62198 6.888879 16.7998 11.19987-1.48883 4.399991-3.22207 8.88917-5.17773 13.444661-3.19999-8.06665-7.06658-16.288931-11.62207-24.644531zm-87.777995.02246c-4.533316 8.333366-8.3776 16.55542-11.599933 24.622069-1.933333-4.55549-3.666733-9.044541-5.177732-13.422199 5.15549-4.311158 10.800016-8.044327 16.777665-11.19987zM43.300199 38.877621c1.711166 4.844324 3.7111 9.800013 5.933266 14.777669-7.822149-.888831-14.066766-1.222167-17.822266-1.333333 3.533333-4.866657 7.511167-9.355511 11.889-13.444336zm129.599931 0c4.37832 4.088825 8.35502 8.600012 11.88834 13.444336-3.75499.133332-9.97663.466669-17.82161 1.333333 2.22216-4.999989 4.19994-9.933345 5.93327-14.777669zm-67.35547.911133v27.511067c-15.999962-6.399987-32.177912-10.088707-45.622395-12.199869 22.3778-12.355475 41.466735-14.888866 45.622395-15.311198Zm5.111.222331c6.51116.866665 24.08904 4.111022 44.22233 15.333333-13.1778 2.155496-28.80002 5.777583-44.22233 11.955403zM27.966866 57.344418c1.777833 0 8.28875.110939 17.622066 1.044271-9.844316 11.555643-18.466758 25.666665-23.5778 42.577801-3.355558-3.288833-5.866691-6.599941-7.244466-9.93327 2.222208-12.199976 6.777999-23.577822 13.2002-33.688802zm160.245104.02213c6.42166 10.111146 10.97654 21.488825 13.19988 33.688801-1.35667 3.311164-3.86679 6.622305-7.24512 9.911131-5.11166-16.911131-13.71166-30.99985-23.5778-42.555336 9.35615-.933332 15.84472-1.044596 17.62304-1.044596zM57.766665 59.921889c12.71115 1.911163 28.066766 5.289269 43.400065 11.155924-5.844482 3.799994-15.644357 10.466554-26.777665 19.19987-5.844316-9.688981-11.600233-20.022482-16.6224-30.355794zm100.666665.02246c-5.02216 10.333311-10.77775 20.644351-16.62207 30.333332-11.15564-8.755649-20.93319-15.399878-26.77766-19.19987 15.33329-5.866655 30.68859-9.222468 43.39973-11.133462zm4.60026 2.111002c5.91116 18.377797 8.02197 35.911074 6.46647 52.533209-7.82215-7.7776-15.97781-14.888602-23.6888-21.133093 6.04432-9.999979 12.02234-20.688919 17.22233-31.400064zm-109.888992.02246c5.199984 10.710979 11.177834 21.39976 17.222334 31.399741-7.711159 6.22215-15.866659 13.333478-23.688808 21.133468-1.555659-16.644476.577491-34.177745 6.466474-52.533209ZM169.1446 64.655283c8.82214 11.044477 16.37721 24.31139 20.75553 40.089187-4.35499 3.5555-9.59992 6.99991-15.28874 10.28875 1.48883-16.044479-.33348-32.866807-5.46679-50.377937zm-122.111001.08919c-5.111167 17.488798-6.9335 34.288741-5.444667 50.310877-5.688816-3.28883-10.910916-6.73324-15.288733-10.28874 4.377817-15.733303 11.91125-28.977826 20.7334-40.022137zm58.511061 9.599935v62.422202c-5.999994-8.13332-17.133229-23.68884-28.422195-42.022136C89.389098 85.077827 100.078 77.877736 105.54466 74.34441Zm5.111 0c5.46666 3.533326 16.15556 10.733464 28.4222 20.400064-11.28898 18.333348-22.42221 33.888878-28.4222 42.022198zM73.099999 97.944399C84.744481 116.78869 96.122348 132.61089 101.989 140.52187c-10.644319-3.02215-33.044368-11.04416-52.666668-21.24414 7.799983-7.82231 15.999851-15.02235 23.777667-21.333331Zm70.000001 0c7.77781 6.310981 15.97801 13.511021 23.77799 21.333331-19.59996 10.19998-42.02236 18.22199-52.66666 21.24414 5.86665-7.91098 17.24419-23.73313 28.88867-42.577471zM13.633533 99.077866c1.866667 2.488824 4.222159 4.933334 6.933267 7.333334-2.177775 8.84432-3.44445 18.37762-3.4222 28.71093-2.555567-8.57765-3.933267-17.64431-3.933267-27.02213 0-3.04449.155534-6.04448.4222-9.022134zm188.933267 0c.28833 2.977654.44498 5.977644.44498 9.022134-.0233 9.39998-1.40004 18.46665-3.95671 27.02213.0233-10.33331-1.22155-19.86661-3.42155-28.71093 2.71167-2.4 5.04494-4.86668 6.93328-7.333334zM24.944724 110.0554c4.710992 3.64449 10.199983 7.13317 16.022142 10.44434-6.777817 7.22215-13.111167 14.91148-18.4222 22.91146-.822234-12.11115.111117-23.22248 2.400058-33.3558zm166.333656 0c2.26667 10.11115 3.19996 21.22248 2.37663 33.3558-5.33332-7.99998-11.64323-15.68931-18.42155-22.91146 5.84499-3.31117 11.3116-6.82202 16.04492-10.44434zM48.011457 124.322c18.466634 9.55565 38.910742 17.04441 50.755208 20.51107-7.577817 1.91116-21.06655 4.17809-42.777667 4.60026-.3555-.7555-.733275-1.4447-1.044275-2.2002-3.199991-7.42215-5.4666-15.06664-6.933266-22.91113zm120.177403 0c-1.44433 7.84449-3.73327 15.48898-6.93326 22.91113-.33334.7555-.68881 1.44473-1.02214 2.17807-21.59995-.42234-35.11124-2.71144-42.73339-4.60027 11.84447-3.46666 32.26666-10.93328 50.68879-20.48893zm4.9336 1.4668c6.73282 7.31115 12.95602 15.06642 17.99935 23.06641-9.37665.46666-17.77726.66672-25.28841.62239.0445-.089.0668-.15564.11132-.24447 3.26666-7.59998 5.64441-15.42201 7.17774-23.44433zm-130.044595.0222c1.533334 8.02215 3.911084 15.84434 7.177733 23.44433.0445.089.08917.15563.111334.24446-7.511158.0222-15.911416-.17785-25.289066-.64452 5.044325-7.97765 11.24435-15.73329 17.999999-23.04427zm58.088865 23.66666c-4.955481 6.24432-13.822099 16.42221-26.955397 27.86719-5.689-6.4005-11.200134-14.00054-15.800134-22.86719 21.755458-.55567 35.200049-3 42.755531-5zm13.86687 0c7.55547 2 21.00006 4.44433 42.75552 5-4.62216 8.86665-10.13347 16.4667-15.80012 22.86719-13.13331-11.44501-21.99992-21.6229-26.9554-27.86722zm-9.48894 2.7334v28.91048c-4.289.0233-13.889178-.22161-25.444661-2.15495 12.399982-11.0888 20.755661-20.75554 25.444661-26.75553zm5.111 0c4.68899 5.99998 13.04436 15.66672 25.44434 26.75553-11.55548 1.93334-21.15534 2.17829-25.44434 2.15495zm-84.288728 1.82224c8.22215.4 15.73325.5778 22.511066.5778 1.333334 0 2.622009-.00014 3.888667-.0224 3.977833 8.08898 8.644808 15.20011 13.578125 21.37793-14.0223-3.82216-28.911224-10.46663-39.977858-21.93327Zm163.466468 0c-11.08831 11.46663-25.95556 18.1111-39.97787 21.93326 4.93333-6.17781 9.59998-13.28895 13.5778-21.37793 1.26667.0223 2.55567.0224 3.889.0224 6.77782 0 14.28942-.1778 22.51107-.57779zm-7.33334 12.86653c-7.08831 8.95498-15.73322 16.60007-25.5332 22.51173-3.33333-2.49-6.51127-4.97818-9.48893-7.42319 11.59998-2.82165 24.08882-7.46639 35.02213-15.08854zm-148.799794.02217c10.933299 7.62232 23.422149 12.26641 35.022133 15.06641-2.977666 2.445-6.155601 4.93318-9.488933 7.42317-9.799984-5.91166-18.444384-13.55677-25.5332-22.48958zm101.533194 17.46608c-9.82214 9.37832-19.22214 15.15673-24.5778 17.51172v-15.66667h1.15561c4.71098 0 13.22221-.26672 23.42219-1.84505zm-54.266595.0452c10.199983 1.53333 18.7112 1.82162 23.422195 1.82162h1.1556v15.68977c-5.35566-2.35666-14.755644-8.13308-24.577795-17.51139Zm-7.222333.0215c7.644317 7.93332 15.311274 13.75667 21.600258 17.66667-11.133299-1.51-21.666975-4.93324-31.244792-9.97656 3.422167-2.59999 6.644534-5.17845 9.644534-7.69011zm68.688798 0c3.02216 2.51166 6.24451 5.09012 9.66667 7.69011-9.57782 5.04332-20.11116 8.46656-31.24447 9.97656 6.26665-3.91 13.95565-9.73335 21.5778-17.66667z" style="font-variation-settings:normal" transform="translate(-7.9999999 -8)"/>
</svg>