<?xml version="1.0" encoding="utf-8"?>
<!-- Generator: Adobe Illustrator 26.5.0, SVG Export Plug-In . SVG Version: 6.00 Build 0)  -->
<svg version="1.0" id="katman_1" xmlns="http://www.w3.org/2000/svg" xmlns:xlink="http://www.w3.org/1999/xlink" x="0px" y="0px"
	 viewBox="0 0 1190.55 841.89" style="enable-background:new 0 0 1190.55 841.89;" xml:space="preserve">
<style type="text/css">
	.st0{clip-path:url(#SVGID_00000016776221723015621690000009106329598997271473_);}
	.st1{fill:#E42953;}
</style>
<g>
	<defs>
		<rect id="SVGID_1_" x="215.36" y="132" width="758.98" height="577"/>
	</defs>
	<clipPath id="SVGID_00000040548221866888915140000016129299296920655245_">
		<use xlink:href="#SVGID_1_"  style="overflow:visible;"/>
	</clipPath>
	<g style="clip-path:url(#SVGID_00000040548221866888915140000016129299296920655245_);">
		<path class="st1" d="M591.15,329.87l-57.25-197.86h-158.9v31.77h15.08c18.8,0,34.39,10.95,40.11,31.2l87.52,301.53h79.73
			l39.07-133.85l-0.55-0.48C610.45,362.18,597.91,352.8,591.15,329.87z"/>
		<path class="st1" d="M912.49,464.73c-18.75,0-33.83-12.47-39.55-31.75L785.44,132H663.55l105.7,364.49h158.33v-31.77H912.49z"/>
		<path class="st1" d="M263.4,464.66v31.87h140.81v-31.87H263.4z"/>
		<path d="M305.54,631l-27.15,76.53h-7.31L242.25,631l-7.12,59.01c-0.19,1.09-0.31,2.68-0.31,3.4c0,7.12,3.11,8.59,13.56,9.12v4.99
			h-33.02v-4.99c8.16-0.43,10.89-2,11.75-8.39l9-71.18c0.97-7.72-2.73-9.99-12.16-10.59v-4.8h32.31c0.31,3.11,0.97,5.54,2.13,8.7
			l23.31,62.13l21.6-62.29c1.16-3.11,2-5.41,2.25-8.52h31.76v4.8c-9.19,0.6-12.89,2.85-11.87,10.59l8.69,71.18
			c0.85,6.7,3.84,7.96,11.75,8.39v4.99H299.7v-4.99c9.85-0.55,13.27-2,13.27-9.12c0-0.85-0.12-2.31-0.24-3.4L305.54,631z
			 M408.56,691.73c0,4.87,1.16,7.96,4.75,7.96c2.13,0,4.13-0.67,5.72-1.4l0.85,3.11c-4.13,4.87-9.56,7.6-16.12,7.6
			c-7.91,0-12.89-4.75-14.29-12.59c-4.56,6.03-11.99,12.28-22.45,12.28c-11.44,0-18.99-6.99-18.99-18.43
			c0-12.11,8.69-17.27,19.4-21.11l21.6-7.84v-12.04c0-8.28-2.75-14.11-10.04-14.11c-6.69,0-10.71,1.71-12.84,4.68
			c4.44,1.03,7,4.56,7,9c0,6.15-4.25,10.16-10.83,10.16c-6.15,0-10.04-4.01-10.04-10.28c0-11.99,12.29-18,28.3-18
			c18.14,0,27.99,6.58,27.99,23.43v37.59H408.56z M389.04,693v-26.47l-12.29,4.87c-6.03,2.43-9.85,5.6-9.85,13.56
			c0,7.48,3.4,12.59,11.13,12.59C382.16,697.56,385.01,695.97,389.04,693z M422.2,702l-0.92-19.71h5.29
			c3.16,12.4,10.28,21.71,21.31,21.71c7.72,0,13.44-3.59,13.44-11.43c0-7.72-5.17-10.71-16.43-14.72c-15.15-5.3-23-11.31-23-24.46
			c0-14.41,10.83-22.7,26.4-22.7c9.31,0,17.16,2.31,23.31,6.15v17.27h-4.87c-2.44-10.16-8.28-18.55-18.44-18.55
			c-7.24,0-11.56,4.25-11.56,10.59c0,6.39,4.44,9.56,15.45,13.68c15.4,5.29,24.4,11.12,24.4,25.12c0,15.15-11.25,24.03-28.84,24.03
			C436.87,709,428.04,706.15,422.2,702z M525.96,631.99v6.44h-18.63v47.39c0,8.57,3.28,12.28,10.04,12.28c3.84,0,7-1.28,10.52-3.83
			l1.88,2.44c-4.56,7.11-11.75,12.28-22.15,12.28c-11.56,0-20.15-6.15-20.15-22.15v-48.42h-8.88v-3.04
			c9.85-4.56,18.13-12.42,24.28-21.83h4.44v18.45H525.96z M593.67,660.39v3.28h-46.5c-0.55,19.9,9.61,31.87,23.6,31.87
			c9.73,0,16.12-4.25,21.31-11.68l2.13,1.28c-3.59,14.11-14,23.84-30.31,23.84c-20.68,0-34.56-15.27-34.56-37.18
			c0-24.27,15.71-41.13,35.16-41.13C583.63,630.69,593.67,643.3,593.67,660.39z M547.61,658.57h28.3c0-13.56-3.52-22.7-12.84-22.7
			C553.64,635.87,548.64,645.43,547.61,658.57z M737.54,614.57l0.31,22.82h-5.6c-3.28-16.43-11.68-25.24-25.56-25.24
			c-19.6,0-28.6,19.52-28.6,43.87c0,26.52,10.47,46.85,29.88,46.85c13.44,0,22.58-8.46,27.44-29.14h5.84l-2.25,26.83
			c-8.28,5.29-19.48,8.45-32.87,8.45c-31.03,0-50.19-19.4-50.19-48.85c0-33.29,22.15-54.16,50.19-54.16
			C718.85,606.01,729.38,609.09,737.54,614.57z M773.55,696.58c0,4.99,2.13,5.84,8.88,6.27v4.68h-37.6v-4.68
			c6.56-0.43,8.88-1.28,8.88-6.27v-76.04l-8.57-4.44v-2.99l25.25-6.88h3.16V696.58z M825.96,692.93v-26.4l-12.29,4.87
			c-5.84,2.25-9.75,5.54-9.75,13.56c0,7.43,3.47,12.59,11.03,12.59C819.08,697.56,821.93,695.97,825.96,692.93z M859.19,702
			l-0.85-19.71h5.29c3.11,12.4,10.28,21.71,21.24,21.71c7.72,0,13.63-3.59,13.63-11.43c0-7.72-5.31-10.71-16.61-14.72
			c-15.15-5.3-23-11.31-23-24.46c0-14.41,10.83-22.7,26.59-22.7c9.13,0,16.99,2.31,23.12,6.15v17.27h-4.87
			c-2.37-10.16-8.28-18.55-18.26-18.55c-7.43,0-11.75,4.25-11.75,10.59c0,6.39,4.44,9.56,15.46,13.68
			c15.47,5.29,24.59,11.12,24.59,25.12c0,15.15-11.44,24.03-29.03,24.03C873.91,709,865.03,706.15,859.19,702z M921.06,702
			l-0.73-19.71h5.29c3.11,12.4,10.4,21.71,21.3,21.71c7.67,0,13.56-3.59,13.56-11.43c0-7.72-5.41-10.71-16.43-14.72
			c-15.34-5.3-23.19-11.31-23.19-24.46c0-14.41,10.89-22.7,26.6-22.7c9.12,0,16.98,2.31,23.19,6.15v17.27h-4.87
			c-2.32-10.16-8.34-18.55-18.31-18.55c-7.43,0-11.56,4.25-11.56,10.59c0,6.39,4.25,9.56,15.28,13.68
			c15.58,5.29,24.46,11.12,24.46,25.12c0,15.15-11.32,24.03-28.91,24.03C936.02,709,927.02,706.15,921.06,702z M845.6,691.73
			c0,4.87,1.09,7.96,4.68,7.96c2.13,0,4.15-0.67,5.72-1.4l0.84,3.11c-4.15,4.87-9.55,7.6-16.12,7.6c-7.84,0-12.91-4.75-14.31-12.59
			c-4.56,6.03-11.99,12.28-22.45,12.28c-11.44,0-18.99-6.99-18.99-18.43c0-12.11,8.71-17.27,19.41-21.11l21.6-7.84v-12.04
			c0-8.28-2.73-14.11-9.97-14.11c-6.76,0-10.78,1.71-12.91,4.68c4.44,1.03,7,4.56,7,9c0,6.15-4.27,10.16-10.83,10.16
			c-6.15,0-10.04-4.01-10.04-10.28c0-11.99,12.29-18,28.3-18c18.19,0,28.04,6.58,28.04,23.43v37.59H845.6z M631.53,640.12
			c0,6.99,4.15,11.43,10.4,11.43c6.88,0,11.2-4.44,11.2-10.71c0-6.44-3.89-10.16-9.43-10.16c-7.72,0-12.72,5.42-18.32,21.18
			l0.55-21.18h-3.28l-25.56,7.72v2.68l8.57,5.16v50.31c0,4.99-2.32,5.84-8.88,6.27v4.68h40.59v-4.68
			c-8.71-0.72-11.99-1.57-11.99-7.31v-36.68c3.16-8.88,8.16-15.03,16.43-19.9L631.53,640.12z"/>
	</g>
</g>
</svg>
